<svg xmlns="http://www.w3.org/2000/svg" style="width:100%;height:100%;transform:rotateY(180deg);content-visibility:visible" width="286" height="400">
  <g fill-rule="nonzero" fill="none">
    <path d="m215.99 390.02-80.89-13.43-98.33 10.3L112.91 400l103.08-9.98z" opacity=".1" fill="#2B2B2B"></path>
    <path d="m191.35 122.39 35.591-14.19-24.061-76.5-9.37-4.75-9.58-4.61-14.55-5.62-10.95 16.42-2.229-1.15-4.46 9.22 21.099 87.73 18.51-6.55z" fill="#DFBCA4"></path>
    <path d="m151.81 41.35 21.03 87.59-3.02 3.25-8 1.08-5.62-6.99-3.959-10.01-2.381-26.37 1.95-48.55z" fill="#C3977A"></path>
    <path d="m151.81 41.351 21.03 87.589-3.02 3.25-20.98 2.841-24.64-75.877 27.61-17.803z" fill="#C3977A"></path>
    <path d="m191.35 122.39 35.591-14.19-24.061-76.5-9.37-4.75-9.58-4.61-14.55-5.62-10.95 16.42-2.229-1.15-4.46 9.22 21.099 87.73 18.51-6.55z" fill="#DFBCA4"></path>
    <path d="m195.531 81.11-1.222 5.26-3.75-3.74 4.972-1.52z" fill="#8A6651"></path>
    <path d="m202.95 31.7-4.97-14.19L163.26 0l-2.23 16.93 8.35-.21 14.549 5.62 9.581 4.61 9.44 4.75z" fill="#E8EF78"></path>
    <path d="m163.26 0-49.49 16.43-13.03 34.65-4.61 9.51 13.9-4.83 13.83-4.61 13.83-4.9 14.12-4.9 6.62-8.21 10.95-16.42L163.26 0z" fill="#D9E253"></path>
    <path d="m151.81 41.35-13.76 4.83-14.19 4.97-13.83 4.61-13.9 4.83-4.04 67.78 42.773 10.365 16.342-50.987.44-40.388.165-6.01z" fill="#B8C645"></path>
    <path d="m161.821 133.27 11.519 20.96 18.009-31.84-18.509 6.55-11.019 4.33z" fill="#8A6651"></path>
    <path d="m184.58 51.44 7.21 19.59 13.03-23.34-20.24 3.75zM179.76 52.3l-17.22 12.75 14.62 1.87 13.4 15.71-10.8-30.33z" fill="#C3977A"></path>
    <path d="m179.76 52.3-16.14 7.13-1.08 5.62 17.22-12.75zM184.58 51.44l18.66-6.78 1.58 3.03-20.24 3.75z" fill="#B8C645"></path>
    <path d="m179.76 52.3 10.799 30.33 4.971-1.52-3.685-9.985-7.266-19.685-4.819.86z" fill="#E8C9B6"></path>
    <path d="M212.03 89.54 197.4 99.7l-19.011.5 20.531 5.12 13.11-15.78z" fill="#99C26C"></path>
    <path d="m212.03 89.54-5.98 2.16-8.291 1.37-5.33 1.8-6.259 3.6-7.781 1.73 19.011-.5 14.63-10.16z" fill="#5A753C"></path>
    <path d="m100.88 208.321-10.44 44.38-7.73-12.04.81-10.141-5.033-16.241 22.393-5.958z" fill="#99C26C"></path>
    <path d="m101.49 166.63-23.002 47.648 37.77-10.143-14.768-37.505z" fill="#738D56"></path>
    <g>
      <path d="m90.44 252.701-9.04.93-10.74-3.08 12.87-20.04 6.91 22.19z" fill="#DFBCA4"></path>
      <path d="m81.4 253.631-18.89-15.64-3.17 12.38 8.35 4.75 13.71-1.49z" fill="#C3977A"></path>
    </g>
    <g>
      <path d="m135.31 351.38-2.869 2.133-12.251 9.107 14.91 29.25 9.58-31.92-9.37-8.57z" fill="#DFBCA4"></path>
      <path d="m135.1 391.87 16.99-.37-14.04-9.58-2.95 9.95z" fill="#C3977A"></path>
      <path d="m144.68 359.95-13.04-5.76 3.02-3.31 6.141 5.559 3.879 3.511z" fill="#8A6651"></path>
    </g>
    <g>
      <path d="m74.37 295.92-13.18-4.76-7.13 39.26 29.82-25.86-9.51-8.64z" fill="#DFBCA4"></path>
      <path d="m62.56 323.07 2.88 16.64-11.38-9.29 8.5-7.35z" fill="#C3977A"></path>
      <path d="m74.37 295.92 3.1 14.26 6.41-5.62-6.009-5.459-3.501-3.181z" fill="#8A6651"></path>
    </g>
    <g fill="#2B2B2B">
      <path d="M200 56.62a4 4 0 0 0 0 8 4.088 4.088 0 0 0 4.099-4 3.998 3.998 0 0 0-3.998-4H200zM173.49 66.2a4.16 4.16 0 0 0-4.11 4.111 4.09 4.09 0 0 0 4.11 4 4 4 0 0 0 4-4 4.09 4.09 0 0 0-4-4.111z"></path>
    </g>
    <g>
      <path d="m100.615 167.879 22.14 57.66 13.33 4.101c14.037-.648 38.737.556 38.737.556l-3.179-67.626-9.407-17.88-40.044-2.675-21.577 25.864z" fill="#5A753C"></path>
      <path d="m174.62 228.519-51.99-3.478 3.25 8.638 19.16 13.761 32.05 1.439-.25-2.215-2.22-18.145z" fill="#99C26C"></path>
    </g>
    <g>
      <path d="m125.88 233.68-25.94 33.28 34 5.691 43.15-23.771-51.21-15.2z" fill="#53AF8A"></path>
      <path d="m99.94 266.96 15.63 23.19-8.21 24.21 42.65 26.79 27.08-92.27-77.15 18.08z" fill="#3E8F6E"></path>
    </g>
    <g fill="#35785D">
      <path d="m115.57 290.15-41.2 5.77 70.31 64.03 5.33-18.8-34.44-51z"></path>
    </g>
    <g>
      <path d="m207.49 22.12-9.51-4.61-4.68 9.51 9.65 4.68 4.54-9.58z" fill="#35785D"></path>
      <path d="m193.51 26.95-9.58-4.61-4.609 9.5 9.66 4.69 4.529-9.58z" fill="#53AF8A"></path>
      <path d="m179.679 31.7-9.649-4.68-4.54 9.58 9.509 4.61 4.68-9.51z" fill="#35785D"></path>
      <path d="m165.71 36.6-9.51-4.61-4.68 9.58 9.58 4.61 4.61-9.58z" fill="#53AF8A"></path>
      <path d="m151.81 41.35-9.58-4.68-4.54 9.58 9.58 4.61 4.54-9.51z" fill="#35785D"></path>
      <path d="m138.05 46.18-9.51-4.68-4.68 9.65 9.65 4.54 4.54-9.51z" fill="#53AF8A"></path>
      <path d="m124.22 50.86-9.65-4.61-4.54 9.51 9.58 4.68 4.61-9.58z" fill="#35785D"></path>
      <path d="m110.32 55.69-9.58-4.61-4.61 9.51 9.5 4.68 4.69-9.58z" fill="#53AF8A"></path>
    </g>
    <g fill="#99C26C">
      <path d="m175.43 212.5 43.44-12.46 4.11 3.75 1.51 4.82-47.4 40.27-1.66-36.38z"></path>
    </g>
    <g fill="#738D56">
      <path d="m174.015 183.965 3.075 64.915-43.29-65.69 17.861.76 22.354.015z"></path>
    </g>
    <g>
      <path d="m218.87 200.04 6.84-7.06 8.72 6.49 9.51-15.42h2.59l-4.47 20.6-17.57 3.96-5.62-8.57z" fill="#DFBCA4"></path>
      <path d="m222.25 196.44 19.81 8.21 3.82-9.29.65-11.31h-2.59l-6.27 7.85-3.24 7.57-4.11-4.9-4.61-1.59-3.46 3.46z" fill="#8A6651"></path>
      <g>
        <path d="m250.06 204.94.29 18.58h-3.75l.29-18.58h3.17z" fill="#738D56"></path>
        <path d="m248.04 168.85 1.52-18.15-21.18 5.69 11.96 12.46h7.7zM240.34 172.16l-19.96-9.15-7.13 18.01 27.09-3.17v-5.69zM240.34 181.02l-23.27 5.33 17.36 13.12 9.51-15.42h-3.6v-3.03zM246.531 184.05l-4.47 20.6 18.3.29-8.43-20.89h-5.4zM255.611 184.05l14.04 18.58 11.738-11.38-25.778-11.52v4.32zM255.61 177.28l27.22 6.48 2.74-15.34-29.96 5.33v3.53zM255.61 171.23l23.19-12.18-15.77-9.58-12.61 19.38h5.19v2.38z" fill="#B8C645"></path>
        <path d="M255.61 184.05h-15.27v-15.2h15.27v15.2z" fill="#5A753C"></path>
        <path d="m248.04 168.85-7.7 7.64 7.7 7.56 7.57-7.56-7.57-7.64z" fill="#D9E253"></path>
      </g>
    </g>
    <g>
      <path d="m150.5 113.5-3.5 62 4.5 9.25 7.508-8.75-3.182-51.04-5.326-11.46z" fill="#D9E354"></path>
      <path d="m152.24 116.27 21.1 37.96 16.14 29.82-37.82.65.58-68.43zM144.819 74.27l-44.08 94.36-26.87-14.04 18.22-26.22 55.18-77.51-2.45 23.41z" fill="#D9E253"></path>
      <path d="m144.819 74.27-14.566 31.181-29.514 63.179 27.634 12.17 5.426 2.39 3.74-37.25 6.42-28.38.86-43.29z" fill="#B8C645"></path>
      <path d="M147.27 50.86 133.8 183.19l17.861 1.51.58-68.43-.5-75.06-4.471 9.65z" fill="#E8EF78"></path>
      <path d="m151.88 69.44-7.06 4.83-1.66 16.86 8.86-5.98-.14-15.71z" fill="#5A753C"></path>
      <path d="m152.019 85.15-8.859 5.98-1.221 12.24 10.15-5.62-.07-12.6z" fill="#99C26C"></path>
      <path d="m152.09 97.75-10.15 5.62-1.44 13.62 11.67-6.49-.08-12.75z" fill="#5A753C"></path>
      <path d="m152.17 110.5-11.67 6.49-1.51 15.05 13.18-7.56V110.5z" fill="#99C26C"></path>
      <path d="m152.17 124.48-13.18 7.56-1.45 13.9 14.55-8.06.08-13.4z" fill="#5A753C"></path>
    </g>
    <g>
      <path d="m36.34 183.874-7.458-33.142-9.686 21.341 17.144 11.8z" fill="#3E8F6E"></path>
      <path d="M19.196 172.073 1.224 155.991l6.477 32.787 11.495-16.705z" fill="#53AF8A"></path>
      <path d="m33.588 189.72-14.392-17.647.504 8.8 2.27 6.599 11.618 2.249z" fill="#738D56"></path>
      <path d="m19.196 172.073-6.795 21.547 9.57-6.148-2.775-15.399z" fill="#99C26C"></path>
    </g>
    <g>
      <path d="m278.64 31.866-15.633-27.29-3.514 23.775 19.147 3.515z" fill="#3E8F6E"></path>
      <path d="m259.494 28.351-20.976-9.6 14.31 28.382 6.666-18.782z" fill="#53AF8A"></path>
      <path d="m278.237 38.742-18.745-10.39 2.872 8.027 5.068 5.45 10.805-3.087z" fill="#738D56"></path>
      <path d="m259.494 28.351-.606 22.033 8.544-8.556-7.938-13.477z" fill="#99C26C"></path>
    </g>
    <g>
      <path d="M43.875 33.815 60.265 5.63l4.855 24.12-21.245 4.065z" fill="#3E8F6E"></path>
      <path d="m65.12 29.75 23.713-6.916-16.338 27.394L65.12 29.75z" fill="#53AF8A"></path>
      <path d="M44.28 42.147 65.12 29.75l-4.11 9.3-4.03 4.1-12.7-1.003z" fill="#738D56"></path>
      <path d="m65.12 29.75-.287 24.297L56.98 43.15l8.14-13.4z" fill="#99C26C"></path>
    </g>
  </g>
</svg>